HIERARCHY
ROOT joint_0
{
	OFFSET 0.000000 0.000000 0.000000
	CHANNELS 6 Xposition Yposition Zposition Zrotation Yrotation Xrotation 
	JOINT joint_1
	{
		OFFSET 0.587158 0.057678 95.682007
		CHANNELS 3 Zrotation Yrotation Xrotation
		JOINT joint_2
		{
			OFFSET -7.116699 -0.219910 87.157959
			CHANNELS 3 Zrotation Yrotation Xrotation
			JOINT joint_3
			{
				OFFSET -5.892822 -0.290222 87.151001
				CHANNELS 3 Zrotation Yrotation Xrotation
				JOINT joint_4
				{
					OFFSET 5.544678 -0.099609 123.768066
					CHANNELS 3 Zrotation Yrotation Xrotation
					JOINT joint_5
					{
						OFFSET 41.981201 4.519775 84.257935
						CHANNELS 3 Zrotation Yrotation Xrotation
						End Site
						{
							OFFSET 0.000000 0.000000 0.000000
						}
					}
				}
				JOINT joint_6
				{
					OFFSET 3.940918 -26.976501 69.308105
					CHANNELS 3 Zrotation Yrotation Xrotation
					JOINT joint_7
					{
						OFFSET 4.776123 -152.592468 -16.842041
						CHANNELS 3 Zrotation Yrotation Xrotation
						JOINT joint_8
						{
							OFFSET 54.421875 -30.424072 -248.864014
							CHANNELS 3 Zrotation Yrotation Xrotation
							JOINT joint_9
							{
								OFFSET 42.120117 -33.387878 -236.524963
								CHANNELS 3 Zrotation Yrotation Xrotation
								End Site
								{
									OFFSET 0.000000 0.000000 0.000000
								}
							}
						}
					}
				}
				JOINT joint_10
				{
					OFFSET 2.312012 26.904114 69.425049
					CHANNELS 3 Zrotation Yrotation Xrotation
					JOINT joint_11
					{
						OFFSET 0.971436 152.197815 -20.626953
						CHANNELS 3 Zrotation Yrotation Xrotation
						JOINT joint_12
						{
							OFFSET 49.954102 28.991455 -249.970093
							CHANNELS 3 Zrotation Yrotation Xrotation
							JOINT joint_13
							{
								OFFSET 48.146973 19.598389 -236.919922
								CHANNELS 3 Zrotation Yrotation Xrotation
								End Site
								{
									OFFSET 0.000000 0.000000 0.000000
								}
							}
						}
					}
				}
			}
		}
	}
	JOINT joint_14
	{
		OFFSET 16.305664 -89.442932 -108.224976
		CHANNELS 3 Zrotation Yrotation Xrotation
		JOINT joint_15
		{
			OFFSET -22.282471 13.437134 -412.904968
			CHANNELS 3 Zrotation Yrotation Xrotation
			JOINT joint_16
			{
				OFFSET -45.426025 14.484802 -445.892029
				CHANNELS 3 Zrotation Yrotation Xrotation
				JOINT joint_17
				{
					OFFSET 173.389404 -9.944031 -76.473001
					CHANNELS 3 Zrotation Yrotation Xrotation
					End Site
					{
						OFFSET 0.000000 0.000000 0.000000
					}
				}
			}
		}
	}
	JOINT joint_18
	{
		OFFSET 13.392822 89.408875 -108.653992
		CHANNELS 3 Zrotation Yrotation Xrotation
		JOINT joint_19
		{
			OFFSET -29.032959 24.483521 -411.977966
			CHANNELS 3 Zrotation Yrotation Xrotation
			JOINT joint_20
			{
				OFFSET -30.530029 28.986328 -446.453018
				CHANNELS 3 Zrotation Yrotation Xrotation
				JOINT joint_21
				{
					OFFSET 170.330078 33.400757 -76.698997
					CHANNELS 3 Zrotation Yrotation Xrotation
					End Site
					{
						OFFSET 0.000000 0.000000 0.000000
					}
				}
			}
		}
	}
}
MOTION
Frames: 11
Frame Time: 0.016667
-2503.406982 836.683655 1086.082031 -7.067144 16.178142 1.725381 -0.896537 -11.074542 1.368967 -0.586856 1.479103 -0.315449 -0.403529 -2.122438 0.248404 -2.785680 -14.220422 8.032381 0.000000 0.000000 0.000000 -7.704052 7.255764 -4.809351 -2.329128 8.090411 -16.665217 -165.594324 -50.285812 -167.490371 0.000000 0.000000 0.000000 9.221770 18.568300 10.654339 20.181475 8.184313 11.260392 177.764001 -52.197303 158.540956 0.000000 0.000000 0.000000 -1.519695 -14.976214 -6.185202 -1.318326 14.146798 -1.062409 -2.272120 6.365117 -0.551853 0.000000 0.000000 0.000000 1.884086 -26.349538 3.220028 4.577574 17.555121 -2.501375 3.378973 1.980500 1.073090 0.000000 0.000000 0.000000 
-2495.544189 840.400879 1084.635010 -7.361917 15.941376 1.919036 -0.927907 -10.888392 1.275374 -0.357468 1.516381 -0.295230 -0.133870 -2.087004 0.248781 -2.802823 -14.281572 8.049762 0.000000 0.000000 0.000000 -8.192235 6.976183 -4.975805 -1.968096 8.040765 -16.562459 -165.526532 -50.275059 -168.029868 0.000000 0.000000 0.000000 9.125983 18.274268 10.317273 20.886787 7.746092 11.563366 177.656020 -50.798043 158.195814 0.000000 0.000000 0.000000 -1.740751 -15.844267 -6.594587 -1.400506 16.742245 -1.158901 -2.743726 6.088003 -0.745981 0.000000 0.000000 0.000000 0.419309 -25.868817 3.737870 2.700007 12.802389 -1.585832 1.958175 4.698786 -0.070215 0.000000 0.000000 0.000000 
-2488.015381 844.582520 1082.409058 -7.864964 15.630945 2.122647 -0.814639 -10.523263 1.218027 -0.073131 1.551098 -0.271424 0.172904 -2.037901 0.270550 -2.778529 -14.429953 8.002317 0.000000 0.000000 0.000000 -8.579598 6.624350 -5.292073 -1.691424 7.861407 -16.378142 -165.498806 -50.184010 -168.610327 0.000000 0.000000 0.000000 8.919052 17.641075 9.828352 21.897808 7.135569 12.173251 177.727460 -49.381128 157.921169 0.000000 0.000000 0.000000 -1.720154 -16.922296 -7.288301 -1.374421 19.817782 -0.974326 -3.248782 5.678956 -0.952939 0.000000 0.000000 0.000000 -1.563564 -25.300122 4.685258 0.139657 8.441615 -0.828460 0.056084 8.319952 -1.624128 0.000000 0.000000 0.000000 
-2480.410889 848.884888 1079.395996 -8.678237 15.095709 2.078055 -0.644845 -9.836065 1.588198 0.274561 1.484194 -0.378605 0.561740 -1.953677 0.271460 -2.725024 -14.522740 7.888421 0.000000 0.000000 0.000000 -8.799153 6.317055 -5.644260 -1.629673 7.574381 -16.291415 -165.512785 -50.087706 -168.981958 0.000000 0.000000 0.000000 8.628343 16.752768 9.332535 23.033367 6.497801 12.789558 177.861381 -48.361143 157.267553 0.000000 0.000000 0.000000 -1.291072 -17.949361 -8.102153 -0.948257 23.244331 -0.392519 -3.411934 5.426260 -1.002696 0.000000 0.000000 0.000000 -3.075954 -24.398829 5.597119 -1.765915 5.309031 -0.025074 -1.268860 11.115881 -2.767267 0.000000 0.000000 0.000000 
-2472.469971 853.263306 1075.186035 -9.631167 14.271695 1.903200 -0.556128 -8.863845 2.195755 0.677098 1.350461 -0.480579 1.024845 -1.807142 0.253251 -2.624153 -14.467937 7.653934 0.000000 0.000000 0.000000 -8.808211 6.126785 -6.092919 -1.897738 7.163616 -16.321411 -165.578783 -49.977849 -168.959826 0.000000 0.000000 0.000000 8.226380 15.545342 8.868216 24.379614 5.844365 13.397602 178.053950 -47.885516 155.809789 0.000000 0.000000 0.000000 -0.335029 -18.836620 -9.349743 0.085200 27.031331 0.911765 -2.829519 5.468406 -0.731377 0.000000 0.000000 0.000000 -3.567687 -23.340060 5.971354 -2.116734 4.175146 0.275923 -1.422895 11.950746 -2.991139 0.000000 0.000000 0.000000 
-2464.454346 857.761353 1070.191040 -10.556637 13.323499 1.846505 -0.539468 -7.784469 2.654984 1.093826 1.211806 -0.469777 1.489985 -1.627652 0.245130 -2.490015 -14.350652 7.355991 0.000000 0.000000 0.000000 -8.660951 5.994144 -6.606754 -2.388084 6.641855 -16.423038 -165.692460 -49.862555 -168.715844 0.000000 0.000000 0.000000 7.761486 14.058456 8.391014 25.892108 5.150653 14.039872 178.252096 -47.744733 153.909469 0.000000 0.000000 0.000000 0.938195 -19.731914 -11.132329 1.479029 31.059304 2.867183 -1.690966 5.772285 -0.222510 0.000000 0.000000 0.000000 -3.536475 -22.293743 5.871601 -1.574650 4.347125 0.025271 -0.951900 11.442410 -2.666362 0.000000 0.000000 0.000000 
-2456.728760 862.164612 1065.635986 -11.433411 12.538587 1.939138 -0.562466 -6.871552 2.939727 1.474446 1.094476 -0.460984 1.915365 -1.459641 0.242679 -2.390630 -14.298429 7.163435 0.000000 0.000000 0.000000 -8.437939 5.840292 -6.938301 -2.890063 6.073888 -16.669554 -165.834898 -49.841140 -168.534728 0.000000 0.000000 0.000000 7.362152 12.600697 7.942644 27.175785 4.547612 14.497743 178.315028 -47.806145 152.261637 0.000000 0.000000 0.000000 2.105739 -20.896912 -13.058295 2.800691 35.164898 4.959836 -0.603586 6.257708 0.281426 0.000000 0.000000 0.000000 -3.372187 -21.329968 5.504156 -0.801928 4.739910 -0.294603 -0.312236 10.413606 -2.164613 0.000000 0.000000 0.000000 
-2449.307861 866.803772 1061.584961 -12.325645 12.052928 2.238576 -0.688252 -6.308640 3.030486 1.835354 1.036497 -0.502664 2.349930 -1.303674 0.239458 -2.364325 -14.375170 7.160770 0.000000 0.000000 0.000000 -8.161267 5.590274 -6.999317 -3.454751 5.375588 -17.213655 -166.036260 -49.975731 -168.407256 0.000000 0.000000 0.000000 7.091660 11.288022 7.521381 28.079237 4.102214 14.688646 178.251936 -48.076674 151.082453 0.000000 0.000000 0.000000 3.116631 -22.700462 -15.188285 4.062139 39.864048 7.065249 0.243689 7.162575 0.739984 0.000000 0.000000 0.000000 -3.134708 -20.475281 4.795644 0.141100 5.124281 -0.543752 0.465408 8.780668 -1.486724 0.000000 0.000000 0.000000 
-2442.178711 871.346924 1057.974976 -13.160170 11.719547 2.690095 -0.837424 -5.888712 2.916243 2.141477 0.978169 -0.522072 2.726882 -1.150569 0.240788 -2.378242 -14.521489 7.257132 0.000000 0.000000 0.000000 -7.802499 5.316014 -6.861161 -4.018982 4.609951 -17.912008 -166.268199 -50.217950 -168.333321 0.000000 0.000000 0.000000 6.879472 10.055976 7.114129 28.744824 3.755985 14.717654 178.134575 -48.585411 150.128187 0.000000 0.000000 0.000000 4.026471 -24.768097 -17.465835 5.309140 44.638094 9.135526 0.967404 8.439828 1.201961 0.000000 0.000000 0.000000 -2.751839 -19.694613 3.798767 1.241777 5.715758 -0.851112 1.358968 6.686454 -0.682764 0.000000 0.000000 0.000000 
-2435.662842 874.592224 1055.843018 -13.756813 11.483678 3.066041 -0.892011 -5.472781 2.769661 2.318704 0.898049 -0.520093 2.946031 -1.041150 0.244401 -2.395752 -14.673819 7.356491 0.000000 0.000000 0.000000 -7.372891 5.158053 -6.527210 -4.196356 4.101724 -18.409903 -166.410000 -50.491525 -168.631771 0.000000 0.000000 0.000000 6.636228 8.979773 6.766716 29.232418 3.470518 14.622211 178.064896 -49.227851 149.332156 0.000000 0.000000 0.000000 4.547122 -26.489016 -19.226030 6.115951 48.193193 10.749207 1.105658 8.976453 1.383307 0.000000 0.000000 0.000000 -2.450149 -19.046036 3.005446 2.016143 6.146606 -1.114774 1.993124 5.184431 -0.119547 0.000000 0.000000 0.000000 
-2430.101562 875.868713 1055.968018 -14.027869 11.392884 3.233818 -0.916380 -5.128152 2.705197 2.372237 0.864474 -0.514449 3.044146 -1.004462 0.243564 -2.403763 -14.826062 7.430881 0.000000 0.000000 0.000000 -6.829424 5.238669 -5.918156 -3.690791 4.093794 -18.506966 -166.378292 -50.702387 -169.656709 0.000000 0.000000 0.000000 6.294591 8.082505 6.482703 29.535470 3.231141 14.369473 178.242959 -49.985041 148.622953 0.000000 0.000000 0.000000 4.396255 -27.771909 -20.091769 6.137285 50.416178 11.821016 0.043106 7.790443 0.949024 0.000000 0.000000 0.000000 -2.412671 -18.674147 2.734834 2.327223 6.379331 -1.351050 2.249131 4.657189 0.090240 0.000000 0.000000 0.000000 
